<?xml version="1.0" encoding="UTF-8" standalone="no"?>
<!-- Generator: Adobe Illustrator 16.0.0, SVG Export Plug-In . SVG Version: 6.00 Build 0)  -->

<svg
   xmlns:dc="http://purl.org/dc/elements/1.1/"
   xmlns:cc="http://creativecommons.org/ns#"
   xmlns:rdf="http://www.w3.org/1999/02/22-rdf-syntax-ns#"
   xmlns:svg="http://www.w3.org/2000/svg"
   xmlns="http://www.w3.org/2000/svg"
   xmlns:sodipodi="http://sodipodi.sourceforge.net/DTD/sodipodi-0.dtd"
   xmlns:inkscape="http://www.inkscape.org/namespaces/inkscape"
   version="1.1"
   id="svg8"
   x="0px"
   y="0px"
   width="268"
   height="230"
   viewBox="0 0 267.99999 230"
   enable-background="new 0 0 595.275 841.891"
   xml:space="preserve"
   sodipodi:docname="box1.svg"
   inkscape:version="0.92.3 (2405546, 2018-03-11)"><metadata
   id="metadata40"><rdf:RDF><cc:Work
       rdf:about=""><dc:format>image/svg+xml</dc:format><dc:type
         rdf:resource="http://purl.org/dc/dcmitype/StillImage" /><dc:title></dc:title></cc:Work></rdf:RDF></metadata><defs
   id="defs38" /><sodipodi:namedview
   pagecolor="#ffffff"
   bordercolor="#666666"
   borderopacity="1"
   objecttolerance="10"
   gridtolerance="10"
   guidetolerance="10"
   inkscape:pageopacity="0"
   inkscape:pageshadow="2"
   inkscape:window-width="640"
   inkscape:window-height="480"
   id="namedview36"
   showgrid="false"
   inkscape:zoom="0.28032133"
   inkscape:cx="297.63751"
   inkscape:cy="420.9455"
   inkscape:window-x="0"
   inkscape:window-y="30"
   inkscape:window-maximized="0"
   inkscape:current-layer="svg8" />



<g
   id="g62"
   transform="translate(-149.82806,274.62746)"><g
     transform="translate(47.822035,-568.18337)"
     id="g4751">
	<path
   style="fill:#f44336;stroke:#ffe580;stroke-width:0.73500001;stroke-linejoin:round"
   inkscape:connector-curvature="0"
   d="m 98.373,430.231 52.148,54.07 103.531,-128.027 -49.731,-51.566 z"
   id="path4753" />
	<path
   style="fill:#f44336;stroke:#ffe580;stroke-width:0.73500001;stroke-linejoin:round"
   inkscape:connector-curvature="0"
   d="M 150.521,484.301 249.378,524.318 365.04,372.504 254.053,356.275 Z"
   id="path4761" />
	<path
   style="fill:#f44336;stroke:#ffe580;stroke-width:0.73500001;stroke-linejoin:round"
   inkscape:connector-curvature="0"
   d="m 204.321,304.707 102.59,7.521 58.13,60.273 -110.987,-16.229 z"
   id="path4763" />
	<path
   style="fill:#f44336;stroke:#ffe580;stroke-width:0.73500001;stroke-linejoin:round"
   inkscape:connector-curvature="0"
   d="m 98.373,430.231 89.548,30.361 118.99,-148.363 -102.59,-7.521 z"
   id="path4755" />
	<path
   style="fill:#f44336;stroke:#ffe580;stroke-width:0.73500001;stroke-linejoin:round"
   inkscape:connector-curvature="0"
   d="M 187.92,460.592 249.379,524.318 365.04,372.504 306.91,312.231 Z"
   id="path4759" />
	<path
   style="fill:#f44336;stroke:#ffe580;stroke-width:0.73500001;stroke-linejoin:round"
   inkscape:connector-curvature="0"
   d="m 98.373,430.231 89.548,30.361 61.459,63.726 -98.857,-40.017 z"
   id="path4757" />
</g><line
     style="fill:none"
     id="line9"
     y2="-211.91"
     x2="261.45999"
     y1="-179.664"
     x1="235.742" /><line
     style="fill:none"
     id="line11"
     y2="-195.67999"
     x2="266.185"
     y1="-203.285"
     x1="233.841" /><g
     transform="translate(0,-561.89099)"
     id="g33">
	<path
   style="fill:#fdd740;stroke:#fdd740;stroke-miterlimit:10"
   inkscape:connector-curvature="0"
   id="path13"
   d="m 295.503,470.522 -8.303,-16.597 2.148,-2.858 13.479,9.709 -1.096,1.458 -3.482,-2.437 -3.734,4.969 2.113,4.26 z m -6.35,-16.48 4.537,9.144 3.288,-4.374 -7.392,-5.345 z"
   stroke-miterlimit="10" />
	<path
   style="fill:#fdd740;stroke:#fdd740;stroke-miterlimit:10"
   inkscape:connector-curvature="0"
   id="path15"
   d="m 306.443,456.365 c -1.211,1.611 -2.75,1.716 -4.618,0.312 -1.125,-0.846 -2.091,-1.851 -2.896,-3.017 -0.805,-1.165 -1.301,-2.409 -1.489,-3.731 -0.188,-1.321 0.084,-2.469 0.814,-3.44 0.49,-0.652 1.123,-1.308 1.898,-1.966 l 0.365,-0.326 -3.572,-4.275 1.082,-1.439 11.368,13.557 -1.038,1.382 -1.434,-1.648 c 0.08,0.24 0.146,0.585 0.198,1.035 0.053,0.449 0.075,0.852 0.068,1.207 -0.036,0.952 -0.285,1.735 -0.746,2.349 z m -4.924,-11.026 c -0.826,0.7 -1.497,1.393 -2.011,2.077 -0.515,0.685 -0.636,1.539 -0.365,2.563 0.271,1.024 0.757,1.99 1.457,2.896 0.699,0.907 1.472,1.677 2.315,2.312 1.049,0.788 1.92,0.722 2.611,-0.199 0.289,-0.384 0.437,-0.973 0.443,-1.769 0.008,-0.795 -0.056,-1.503 -0.189,-2.124 l -0.196,-0.897 z"
   stroke-miterlimit="10" />
	<path
   style="fill:#fdd740;stroke:#fdd740;stroke-miterlimit:10"
   inkscape:connector-curvature="0"
   id="path17"
   d="m 313.644,446.781 c -1.211,1.611 -2.75,1.716 -4.618,0.312 -1.125,-0.846 -2.091,-1.851 -2.896,-3.017 -0.806,-1.165 -1.302,-2.409 -1.489,-3.731 -0.188,-1.321 0.084,-2.469 0.814,-3.44 0.49,-0.652 1.123,-1.308 1.898,-1.966 l 0.365,-0.326 -3.572,-4.275 1.081,-1.439 11.368,13.557 -1.038,1.382 -1.434,-1.648 c 0.08,0.24 0.146,0.585 0.198,1.035 0.052,0.449 0.075,0.852 0.068,1.207 -0.035,0.952 -0.284,1.735 -0.745,2.349 z m -4.924,-11.026 c -0.826,0.7 -1.497,1.393 -2.011,2.077 -0.515,0.685 -0.636,1.539 -0.365,2.563 0.271,1.024 0.757,1.99 1.456,2.896 0.7,0.907 1.473,1.677 2.316,2.312 1.049,0.788 1.92,0.722 2.611,-0.199 0.289,-0.384 0.437,-0.973 0.443,-1.769 0.008,-0.795 -0.056,-1.503 -0.189,-2.124 l -0.196,-0.897 z"
   stroke-miterlimit="10" />
	<path
   style="fill:#fdd740;stroke:#fdd740;stroke-miterlimit:10"
   inkscape:connector-curvature="0"
   id="path19"
   d="m 316.686,421.96 c 0.557,-0.741 1.198,-1.141 1.921,-1.198 0.724,-0.057 1.431,0.175 2.121,0.693 0.69,0.52 1.451,1.292 2.282,2.316 l 4.022,4.794 -1.066,1.42 -3.941,-4.703 c -0.789,-0.974 -1.465,-1.672 -2.028,-2.095 -0.959,-0.721 -1.766,-0.646 -2.419,0.224 -0.289,0.384 -0.438,0.956 -0.451,1.718 -0.012,0.762 0.046,1.431 0.174,2.007 l 0.205,0.845 5.26,6.264 -1.067,1.42 -7.935,-9.415 1.053,-1.4 1.409,1.6 c -0.054,-0.221 -0.113,-0.501 -0.179,-0.841 -0.065,-0.339 -0.066,-0.91 -0.003,-1.713 0.062,-0.805 0.277,-1.449 0.642,-1.936 z"
   stroke-miterlimit="10" />
	<path
   style="fill:#fdd740;stroke:#fdd740;stroke-miterlimit:10"
   inkscape:connector-curvature="0"
   id="path21"
   d="m 327.524,422.082 c 0.55,0.413 1.1,0.567 1.65,0.46 0.551,-0.106 1.008,-0.402 1.374,-0.889 0.682,-0.908 1.281,-1.919 1.798,-3.032 l 0.245,-0.566 1.046,0.966 c -0.485,1.418 -1.121,2.65 -1.909,3.699 -1.528,2.034 -3.265,2.32 -5.209,0.859 -1.778,-1.336 -3.062,-2.932 -3.85,-4.785 -0.384,-0.928 -0.529,-1.893 -0.437,-2.895 0.092,-1.001 0.46,-1.931 1.104,-2.788 1.423,-1.893 2.915,-2.253 4.476,-1.08 1.138,0.855 1.612,1.883 1.422,3.08 -0.189,1.199 -0.986,2.731 -2.39,4.599 l -0.735,0.979 c 0.393,0.515 0.865,0.98 1.415,1.393 z m -1.61,-3.491 c 0.98,-1.305 1.55,-2.348 1.707,-3.13 0.158,-0.782 -0.128,-1.447 -0.856,-1.995 -0.768,-0.577 -1.521,-0.373 -2.262,0.611 -1.183,1.573 -0.976,3.43 0.618,5.569 z"
   stroke-miterlimit="10" />
	<path
   style="fill:#fdd740;stroke:#fdd740;stroke-miterlimit:10"
   inkscape:connector-curvature="0"
   id="path23"
   d="m 327.074,408.538 1.081,-1.439 8.217,6.445 0.273,-0.365 -5.198,-10.061 1.269,-1.688 8.212,6.051 0.274,-0.364 -5.521,-10.033 1.096,-1.458 6.32,11.564 -1.918,2.551 -7.583,-5.608 4.844,9.254 -1.874,2.494 z"
   stroke-miterlimit="10" />
	<path
   style="fill:#fdd740;stroke:#fdd740;stroke-miterlimit:10"
   inkscape:connector-curvature="0"
   id="path25"
   d="m 339.645,387.656 -1.409,-1.72 1.081,-1.439 1.425,1.701 z m 9.599,11.356 -7.935,-9.416 1.081,-1.439 7.921,9.435 z"
   stroke-miterlimit="10" />
	<path
   style="fill:#fdd740;stroke:#fdd740;stroke-miterlimit:10"
   inkscape:connector-curvature="0"
   id="path27"
   d="m 352.086,391.196 c 0.588,0.442 1.122,0.343 1.604,-0.296 l 0.995,-1.564 1.021,0.918 c -0.321,0.8 -0.707,1.5 -1.159,2.102 -0.452,0.602 -0.968,0.954 -1.547,1.059 -0.579,0.105 -1.138,-0.044 -1.675,-0.448 -0.537,-0.403 -1.138,-1.015 -1.803,-1.835 l -3.902,-4.674 -0.952,1.266 -1.002,-1.263 0.938,-1.247 -2.335,-2.805 1.081,-1.439 2.32,2.824 2.019,-2.686 1.017,1.244 -2.019,2.686 3.979,4.732 c 0.499,0.614 0.971,1.09 1.42,1.426 z"
   stroke-miterlimit="10" />
	<path
   style="fill:#fdd740;stroke:#fdd740;stroke-miterlimit:10"
   inkscape:connector-curvature="0"
   id="path29"
   d="m 355.451,384.92 c 0.55,0.414 1.1,0.567 1.65,0.46 0.551,-0.106 1.008,-0.403 1.374,-0.889 0.682,-0.908 1.281,-1.918 1.798,-3.032 l 0.245,-0.566 1.046,0.966 c -0.485,1.417 -1.121,2.65 -1.909,3.699 -1.528,2.034 -3.265,2.32 -5.209,0.859 -1.778,-1.336 -3.062,-2.931 -3.85,-4.784 -0.384,-0.929 -0.529,-1.894 -0.437,-2.895 0.092,-1.001 0.46,-1.931 1.104,-2.788 1.423,-1.893 2.915,-2.253 4.475,-1.081 1.139,0.855 1.613,1.883 1.423,3.081 -0.189,1.198 -0.986,2.731 -2.39,4.599 l -0.735,0.978 c 0.392,0.516 0.865,0.98 1.415,1.393 z m -1.61,-3.491 c 0.98,-1.305 1.55,-2.348 1.707,-3.13 0.158,-0.782 -0.128,-1.447 -0.856,-1.995 -0.768,-0.577 -1.521,-0.373 -2.262,0.612 -1.183,1.573 -0.976,3.43 0.618,5.568 z"
   stroke-miterlimit="10" />
	<path
   style="fill:#fdd740;stroke:#fdd740;stroke-miterlimit:10"
   inkscape:connector-curvature="0"
   id="path31"
   d="m 361.762,367.612 c -0.959,-0.721 -1.766,-0.646 -2.419,0.224 -0.279,0.371 -0.424,0.938 -0.437,1.699 -0.012,0.762 0.046,1.431 0.174,2.006 l 0.205,0.845 5.26,6.264 -1.067,1.42 -7.935,-9.416 1.053,-1.4 1.409,1.6 c -0.162,-0.583 -0.241,-1.182 -0.238,-1.8 0.023,-1.203 0.267,-2.111 0.728,-2.726 0.538,-0.716 1.126,-1.085 1.763,-1.107 0.579,-0.025 1.085,0.075 1.517,0.299 -0.041,-0.211 -0.078,-0.494 -0.111,-0.85 -0.034,-0.355 0.005,-0.932 0.114,-1.73 0.109,-0.798 0.342,-1.434 0.697,-1.907 0.558,-0.742 1.196,-1.138 1.914,-1.188 0.719,-0.05 1.397,0.165 2.037,0.645 0.64,0.481 1.438,1.282 2.397,2.402 l 3.999,4.747 -1.081,1.439 -3.941,-4.703 c -0.789,-0.973 -1.459,-1.667 -2.01,-2.081 -0.972,-0.73 -1.774,-0.673 -2.409,0.171 -0.27,0.358 -0.426,0.866 -0.47,1.523 -0.044,0.657 -0.02,1.231 0.073,1.721 l 0.119,0.72 c 0.572,0.49 1.143,1.089 1.712,1.797 l 3.998,4.746 -1.081,1.439 -3.941,-4.703 c -0.789,-0.974 -1.465,-1.673 -2.029,-2.096 z"
   stroke-miterlimit="10" />
</g></g>
</svg>