<?xml version="1.0" encoding="UTF-8" standalone="no"?>
<!-- Generator: Adobe Illustrator 16.0.0, SVG Export Plug-In . SVG Version: 6.00 Build 0)  -->

<svg
   xmlns:dc="http://purl.org/dc/elements/1.1/"
   xmlns:cc="http://creativecommons.org/ns#"
   xmlns:rdf="http://www.w3.org/1999/02/22-rdf-syntax-ns#"
   xmlns:svg="http://www.w3.org/2000/svg"
   xmlns="http://www.w3.org/2000/svg"
   xmlns:sodipodi="http://sodipodi.sourceforge.net/DTD/sodipodi-0.dtd"
   xmlns:inkscape="http://www.inkscape.org/namespaces/inkscape"
   version="1.1"
   id="svg8"
   x="0px"
   y="0px"
   width="420"
   height="300"
   viewBox="0 0 419.99998 300"
   enable-background="new 0 0 595.275 841.891"
   xml:space="preserve"
   sodipodi:docname="box2.svg"
   inkscape:version="0.92.3 (2405546, 2018-03-11)"><metadata
   id="metadata51"><rdf:RDF><cc:Work
       rdf:about=""><dc:format>image/svg+xml</dc:format><dc:type
         rdf:resource="http://purl.org/dc/dcmitype/StillImage" /><dc:title></dc:title></cc:Work></rdf:RDF></metadata><defs
   id="defs49" /><sodipodi:namedview
   pagecolor="#ffffff"
   bordercolor="#666666"
   borderopacity="1"
   objecttolerance="10"
   gridtolerance="10"
   guidetolerance="10"
   inkscape:pageopacity="0"
   inkscape:pageshadow="2"
   inkscape:window-width="640"
   inkscape:window-height="480"
   id="namedview47"
   showgrid="false"
   inkscape:zoom="0.28032133"
   inkscape:cx="297.63751"
   inkscape:cy="420.9455"
   inkscape:window-x="0"
   inkscape:window-y="30"
   inkscape:window-maximized="0"
   inkscape:current-layer="svg8" />


<g
   id="g82"
   transform="translate(-99.885375,-267.20622)"><g
     transform="translate(-20.135588,26.427963)"
     id="g4653">
	<path
   style="fill:#ff6e40;stroke:#ffe580;stroke-width:0.7482;stroke-linejoin:round"
   inkscape:connector-curvature="0"
   d="m 129.375,331.904 v 84.4 l 112.733,6.123 v -73.203 z"
   id="path4655" />
	<path
   style="fill:#ff6e40;stroke:#ffe580;stroke-width:0.7482;stroke-linejoin:round"
   inkscape:connector-curvature="0"
   d="M 242.108,349.224 418.826,290.618 V 401.71 l -176.718,20.718 z"
   id="path4665" />
	<path
   style="fill:#ff6e40;stroke:#ffe580;stroke-width:0.7482;stroke-linejoin:round"
   inkscape:connector-curvature="0"
   d="m 129.375,331.904 148.209,-84.607 141.242,43.321 -176.718,58.606 z"
   id="path4657" />
	<path
   style="fill:#ff6e40;stroke:#ffe580;stroke-width:0.7482;stroke-linejoin:round"
   inkscape:connector-curvature="0"
   d="m 129.375,416.304 148.209,-29.908 141.242,15.313 -176.718,20.718 z"
   id="path4663" />
	<path
   style="fill:#ff6e40;stroke:#ffe580;stroke-width:0.7482;stroke-linejoin:round"
   inkscape:connector-curvature="0"
   d="m 277.584,247.296 v 139.1 l 141.242,15.313 V 290.618 Z"
   id="path4661" />
	<path
   style="fill:#ff6e40;stroke:#ffe580;stroke-width:0.7482;stroke-linejoin:round"
   inkscape:connector-curvature="0"
   d="m 129.375,331.904 148.209,-84.607 v 139.1 l -148.209,29.908 z"
   id="path4659" />
</g><g
     transform="translate(-20.135588,26.427963)"
     id="g4667">
	<path
   style="fill:#ffcc00;stroke:#ffe580;stroke-width:0.7482;stroke-linejoin:round"
   inkscape:connector-curvature="0"
   d="m 130.024,416.304 v 75.738 l 48.513,-1.689 v -71.414 z"
   id="path4669" />
	<path
   style="fill:#ffcc00;stroke:#ffe580;stroke-width:0.7482;stroke-linejoin:round"
   inkscape:connector-curvature="0"
   d="m 130.024,492.042 334.019,43.221 66.869,-9.442 -352.375,-35.468 z"
   id="path4677" />
	<path
   style="fill:#ffcc00;stroke:#ffe580;stroke-width:0.7482;stroke-linejoin:round"
   inkscape:connector-curvature="0"
   d="M 178.536,418.939 530.911,363.625 V 525.821 L 178.536,490.353 Z"
   id="path4679" />
	<path
   style="fill:#ffcc00;stroke:#ffe580;stroke-width:0.7482;stroke-linejoin:round"
   inkscape:connector-curvature="0"
   d="M 130.024,416.304 464.042,348.9 530.911,363.625 178.536,418.939 Z"
   id="path4671" />
	<path
   style="fill:#ffcc00;stroke:#ffe580;stroke-width:0.7482;stroke-linejoin:round"
   inkscape:connector-curvature="0"
   d="m 464.042,348.9 v 186.363 l 66.869,-9.442 V 363.625 Z"
   id="path4675" />
	<path
   style="fill:#ffcc00;stroke:#ffe580;stroke-width:0.7482;stroke-linejoin:round"
   inkscape:connector-curvature="0"
   d="M 130.024,416.304 464.042,348.9 V 535.263 L 130.023,492.042 v -75.738 z"
   id="path4673" />
</g><g
     id="g44">
	<path
   style="fill:#f44336;stroke:#f44336;stroke-miterlimit:10"
   inkscape:connector-curvature="0"
   id="path16"
   d="m 283.537,439.214 c -3.02,0.348 -4.712,-1.06 -5.077,-4.223 -0.26,-2.257 -0.089,-4.475 0.513,-6.654 0.318,-1.148 0.743,-2.184 1.272,-3.106 0.529,-0.922 1.237,-1.705 2.122,-2.347 0.884,-0.642 1.882,-1.026 2.995,-1.154 1.097,-0.127 2.233,-0.121 3.409,0.018 l 0.586,0.053 -0.196,1.231 c -1.317,-0.106 -2.536,-0.095 -3.656,0.034 -1.121,0.13 -2.078,0.591 -2.873,1.383 -0.795,0.792 -1.391,1.767 -1.789,2.924 -0.863,2.435 -1.15,4.9 -0.863,7.396 0.136,1.177 0.494,2.017 1.076,2.521 0.582,0.504 1.429,0.692 2.542,0.564 1.192,-0.138 2.286,-0.36 3.281,-0.668 l 0.535,-0.183 0.068,1.225 c -1.375,0.511 -2.69,0.84 -3.945,0.986 z"
   stroke-miterlimit="10" />
	<path
   style="fill:#f44336;stroke:#f44336;stroke-miterlimit:10"
   inkscape:connector-curvature="0"
   id="path18"
   d="m 296.36,425.173 c 0.89,-0.104 1.604,0.08 2.141,0.55 0.537,0.47 0.854,1.114 0.947,1.933 0.095,0.818 0.063,1.938 -0.096,3.356 l -0.709,6.219 -1.407,0.162 0.714,-6.171 c 0.145,-1.257 0.173,-2.267 0.085,-3.029 -0.145,-1.256 -0.805,-1.815 -1.981,-1.681 -0.524,0.061 -1.092,0.38 -1.702,0.958 -0.61,0.577 -1.093,1.137 -1.449,1.677 l -0.532,0.834 -0.905,8.077 -1.431,0.165 1.997,-17.673 1.431,-0.165 -0.885,7.833 c 0.686,-1.175 1.536,-2.046 2.549,-2.613 0.425,-0.243 0.836,-0.387 1.233,-0.432 z"
   stroke-miterlimit="10" />
	<path
   style="fill:#f44336;stroke:#f44336;stroke-miterlimit:10"
   inkscape:connector-curvature="0"
   id="path20"
   d="m 303.548,433.259 c 0.083,0.716 0.366,1.255 0.852,1.617 0.484,0.363 1.044,0.508 1.681,0.435 1.223,-0.142 2.375,-0.419 3.455,-0.833 l 0.553,-0.233 0.039,1.18 c -1.328,0.636 -2.619,1.026 -3.875,1.171 -2.495,0.288 -3.878,-0.744 -4.149,-3.097 -0.25,-2.161 0.039,-4.2 0.865,-6.115 0.391,-0.931 0.979,-1.711 1.76,-2.341 0.78,-0.63 1.704,-1.006 2.769,-1.129 2.24,-0.258 3.467,0.519 3.676,2.33 0.16,1.399 -0.268,2.443 -1.283,3.132 -1.016,0.689 -2.676,1.166 -4.98,1.432 l -1.335,0.154 c -0.102,0.816 -0.11,1.582 -0.028,2.297 z m 1.512,-3.654 c 1.749,-0.201 2.995,-0.534 3.739,-0.998 0.742,-0.465 1.057,-1.197 0.941,-2.199 -0.115,-1.001 -0.84,-1.425 -2.176,-1.271 -2.082,0.24 -3.386,1.783 -3.911,4.63 z"
   stroke-miterlimit="10" />
	<path
   style="fill:#f44336;stroke:#f44336;stroke-miterlimit:10"
   inkscape:connector-curvature="0"
   id="path22"
   d="m 320.853,422.638 0.416,0.049 -0.226,1.186 c -1.006,-0.062 -1.858,-0.052 -2.558,0.029 -1.049,0.12 -1.896,0.597 -2.541,1.428 -1.237,1.561 -1.696,3.731 -1.375,6.513 0.095,0.826 0.373,1.423 0.834,1.788 0.461,0.366 1.152,0.495 2.074,0.389 0.557,-0.063 1.292,-0.245 2.208,-0.544 l 0.442,-0.147 0.061,1.152 c -1.043,0.458 -2.041,0.742 -2.994,0.853 -2.432,0.28 -3.782,-0.748 -4.052,-3.084 -0.277,-2.4 -0.013,-4.508 0.792,-6.324 0.412,-0.901 0.998,-1.646 1.761,-2.232 0.762,-0.587 1.596,-0.934 2.501,-1.038 0.907,-0.106 1.792,-0.111 2.657,-0.018 z"
   stroke-miterlimit="10" />
	<path
   style="fill:#f44336;stroke:#f44336;stroke-miterlimit:10"
   inkscape:connector-curvature="0"
   id="path24"
   d="m 324.043,434.302 -1.43,0.165 1.996,-17.673 1.431,-0.165 -1.168,10.402 1.688,-0.243 4.097,-5.328 1.692,-0.195 -4.637,6.091 3.174,6.157 -1.525,0.176 -2.92,-5.631 -1.738,0.225 z"
   stroke-miterlimit="10" />
	<path
   style="fill:#f44336;stroke:#f44336;stroke-miterlimit:10"
   inkscape:connector-curvature="0"
   id="path26"
   d="m 338.458,432.64 1.392,-12.24 1.431,-0.165 -1.392,12.24 z m 1.693,-15.077 0.233,-1.96 1.431,-0.165 -0.21,1.957 z"
   stroke-miterlimit="10" />
	<path
   style="fill:#f44336;stroke:#f44336;stroke-miterlimit:10"
   inkscape:connector-curvature="0"
   id="path28"
   d="m 349.541,419.04 c 0.906,-0.104 1.628,0.078 2.165,0.548 0.537,0.47 0.854,1.118 0.948,1.944 0.096,0.826 0.062,1.926 -0.103,3.297 l -0.727,6.269 -1.407,0.163 0.714,-6.171 c 0.153,-1.322 0.19,-2.333 0.109,-3.032 -0.145,-1.256 -0.813,-1.815 -2.005,-1.678 -0.524,0.061 -1.092,0.376 -1.703,0.945 -0.61,0.57 -1.094,1.133 -1.448,1.689 l -0.511,0.808 -0.926,8.104 -1.431,0.165 1.392,-12.24 1.383,-0.159 -0.234,2.37 c 0.672,-1.156 1.531,-2.021 2.576,-2.592 0.408,-0.241 0.811,-0.384 1.208,-0.43 z"
   stroke-miterlimit="10" />
	<path
   style="fill:#f44336;stroke:#f44336;stroke-miterlimit:10"
   inkscape:connector-curvature="0"
   id="path30"
   d="m 355.486,418.595 1.407,-0.162 1.565,10.643 0.834,-0.096 4.205,-11.309 1.502,-0.173 -4.801,12.633 -2.933,0.338 z"
   stroke-miterlimit="10" />
	<path
   style="fill:#f44336;stroke:#f44336;stroke-miterlimit:10"
   inkscape:connector-curvature="0"
   id="path32"
   d="m 367.607,425.872 c 0.082,0.716 0.366,1.255 0.851,1.617 0.484,0.363 1.045,0.508 1.681,0.435 1.224,-0.142 2.376,-0.419 3.456,-0.833 l 0.553,-0.233 0.039,1.18 c -1.328,0.636 -2.62,1.026 -3.875,1.171 -2.496,0.288 -3.879,-0.744 -4.15,-3.097 -0.249,-2.161 0.039,-4.2 0.865,-6.115 0.392,-0.931 0.979,-1.711 1.76,-2.341 0.78,-0.63 1.704,-1.006 2.769,-1.129 2.241,-0.258 3.467,0.519 3.675,2.33 0.162,1.399 -0.266,2.443 -1.281,3.132 -1.016,0.689 -2.677,1.166 -4.98,1.432 l -1.336,0.154 c -0.102,0.816 -0.11,1.582 -0.027,2.297 z m 1.511,-3.653 c 1.748,-0.201 2.994,-0.534 3.738,-0.998 0.743,-0.465 1.058,-1.197 0.942,-2.199 -0.116,-1.001 -0.841,-1.425 -2.177,-1.271 -2.082,0.24 -3.386,1.783 -3.911,4.63 z"
   stroke-miterlimit="10" />
	<path
   style="fill:#f44336;stroke:#f44336;stroke-miterlimit:10"
   inkscape:connector-curvature="0"
   id="path34"
   d="m 383.242,415.155 c 0.905,-0.104 1.627,0.078 2.165,0.548 0.537,0.47 0.854,1.118 0.948,1.944 0.096,0.826 0.062,1.926 -0.103,3.297 l -0.727,6.269 -1.407,0.162 0.714,-6.17 c 0.153,-1.322 0.19,-2.333 0.109,-3.032 -0.145,-1.256 -0.813,-1.815 -2.005,-1.678 -0.524,0.061 -1.092,0.376 -1.703,0.945 -0.61,0.57 -1.094,1.133 -1.448,1.689 l -0.511,0.808 -0.926,8.104 -1.431,0.165 1.392,-12.24 1.383,-0.159 -0.234,2.37 c 0.672,-1.156 1.53,-2.021 2.576,-2.592 0.409,-0.241 0.811,-0.384 1.208,-0.43 z"
   stroke-miterlimit="10" />
	<path
   style="fill:#f44336;stroke:#f44336;stroke-miterlimit:10"
   inkscape:connector-curvature="0"
   id="path36"
   d="m 391.16,424.293 c 0.093,0.811 0.577,1.166 1.451,1.065 l 1.891,-0.363 0.034,1.132 c -0.805,0.285 -1.561,0.47 -2.268,0.551 -0.708,0.082 -1.294,-0.044 -1.759,-0.377 -0.466,-0.333 -0.734,-0.817 -0.808,-1.453 -0.074,-0.636 -0.038,-1.509 0.108,-2.621 l 0.736,-6.391 -1.621,0.187 0.164,-1.299 1.621,-0.188 0.462,-3.75 1.431,-0.165 -0.485,3.752 3.553,-0.409 -0.165,1.299 -3.528,0.407 -0.753,6.465 c -0.103,0.915 -0.124,1.633 -0.064,2.158 z"
   stroke-miterlimit="10" />
	<path
   style="fill:#f44336;stroke:#f44336;stroke-miterlimit:10"
   inkscape:connector-curvature="0"
   id="path38"
   d="m 401.574,413.066 c 2.671,-0.308 4.157,0.85 4.459,3.473 0.271,2.353 -0.059,4.411 -0.99,6.178 -0.933,1.767 -2.304,2.754 -4.116,2.963 -2.607,0.301 -4.055,-0.805 -4.345,-3.316 -0.272,-2.368 0.062,-4.46 1.004,-6.276 0.943,-1.817 2.272,-2.824 3.988,-3.022 z m -0.793,11.35 c 1.366,-0.157 2.398,-0.989 3.095,-2.495 0.697,-1.506 0.93,-3.251 0.7,-5.238 -0.094,-0.811 -0.383,-1.434 -0.867,-1.869 -0.485,-0.436 -1.149,-0.604 -1.991,-0.507 -1.32,0.151 -2.324,1.009 -3.014,2.569 -0.689,1.562 -0.92,3.336 -0.691,5.322 0.192,1.669 1.115,2.408 2.768,2.218 z"
   stroke-miterlimit="10" />
	<path
   style="fill:#f44336;stroke:#f44336;stroke-miterlimit:10"
   inkscape:connector-curvature="0"
   id="path40"
   d="m 408.206,424.598 1.415,-12.243 1.407,-0.162 -0.224,1.838 c 1.405,-1.225 2.813,-2.072 4.225,-2.541 l -0.189,1.496 c -0.896,0.329 -2.047,0.969 -3.451,1.92 l -0.694,0.467 -1.034,9.058 z"
   stroke-miterlimit="10" />
	<path
   style="fill:#f44336;stroke:#f44336;stroke-miterlimit:10"
   inkscape:connector-curvature="0"
   id="path42"
   d="m 416.084,411.609 1.407,-0.162 1.565,10.643 0.811,-0.093 4.229,-11.311 1.502,-0.173 -6.927,18.29 -1.455,0.167 2.198,-5.665 -1.55,0.179 z"
   stroke-miterlimit="10" />
</g></g>
</svg>