<?xml version="1.0" encoding="UTF-8" standalone="no"?>
<svg
   xmlns:dc="http://purl.org/dc/elements/1.1/"
   xmlns:cc="http://creativecommons.org/ns#"
   xmlns:rdf="http://www.w3.org/1999/02/22-rdf-syntax-ns#"
   xmlns:svg="http://www.w3.org/2000/svg"
   xmlns="http://www.w3.org/2000/svg"
   id="svg8"
   version="1.1"
   viewBox="0 0 210 297"
   height="297mm"
   width="210mm">
  <defs
     id="defs2" />
  <metadata
     id="metadata5">
    <rdf:RDF>
      <cc:Work
         rdf:about="">
        <dc:format>image/svg+xml</dc:format>
        <dc:type
           rdf:resource="http://purl.org/dc/dcmitype/StillImage" />
        <dc:title></dc:title>
      </cc:Work>
    </rdf:RDF>
  </metadata>
  <g
     id="layer1">
    <g
       style="fill:#ff6e40;fill-opacity:1;stroke:#ffe580;stroke-opacity:1"
       id="g4653">
      <path
         points="58.672744,129.75796 98.442677,131.91794 98.442677,106.09365 58.672744,99.983288 "
         d="m 58.672744,99.983288 v 29.774672 l 39.769933,2.15998 v -25.82429 z"
         style="fill:#ff6e40;fill-opacity:1;fill-rule:evenodd;stroke:#ffe580;stroke-width:0.74816054;stroke-linejoin:round;stroke-opacity:1"
         id="path4655" />
      <path
         points="160.78491,85.418618 160.78491,124.60944 98.442677,131.91794 98.442677,106.09365 "
         d="M 98.442677,106.09365 160.78491,85.418618 v 39.190822 l -62.342233,7.3085 z"
         style="fill:#ff6e40;fill-opacity:1;fill-rule:evenodd;stroke:#ffe580;stroke-width:0.74816054;stroke-linejoin:round;stroke-opacity:1"
         id="path4665" />
      <path
         points="110.95776,70.135812 160.78491,85.418618 98.442677,106.09365 58.672744,99.983288 "
         d="M 58.672744,99.983288 110.95776,70.135812 160.78491,85.418618 98.442677,106.09365 Z"
         style="fill:#ff6e40;fill-opacity:1;fill-rule:evenodd;stroke:#ffe580;stroke-width:0.74816054;stroke-linejoin:round;stroke-opacity:1"
         id="path4657" />
      <path
         points="110.95776,119.20705 160.78491,124.60944 98.442677,131.91794 58.672744,129.75796 "
         d="m 58.672744,129.75796 52.285016,-10.55091 49.82715,5.40239 -62.342233,7.3085 z"
         style="fill:#ff6e40;fill-opacity:1;fill-rule:evenodd;stroke:#ffe580;stroke-width:0.74816054;stroke-linejoin:round;stroke-opacity:1"
         id="path4663" />
      <path
         points="110.95776,119.20705 160.78491,124.60944 160.78491,85.418618 110.95776,70.135812 "
         d="m 110.95776,70.135812 v 49.071238 l 49.82715,5.40239 V 85.418618 Z"
         style="fill:#ff6e40;fill-opacity:1;fill-rule:evenodd;stroke:#ffe580;stroke-width:0.74816054;stroke-linejoin:round;stroke-opacity:1"
         id="path4661" />
      <path
         points="110.95776,70.135812 110.95776,119.20705 58.672744,129.75796 58.672744,99.983288 "
         d="M 58.672744,99.983288 110.95776,70.135812 v 49.071238 l -52.285016,10.55091 z"
         style="fill:#ff6e40;fill-opacity:1;fill-rule:evenodd;stroke:#ffe580;stroke-width:0.74816054;stroke-linejoin:round;stroke-opacity:1"
         id="path4659" />
    </g>
    <g
       style="fill:#ffcc00;fill-opacity:1;stroke:#ffe580;stroke-opacity:1"
       id="g4667">
      <path
         points="58.672744,156.47697 75.786999,155.88097 75.786999,130.68747 58.672744,129.75796 "
         d="m 58.672744,129.75796 v 26.71901 l 17.114255,-0.596 v -25.1935 z"
         style="fill:#ffcc00;fill-rule:evenodd;stroke:#ffe580;stroke-width:0.74816054;stroke-linejoin:round;stroke-opacity:1"
         id="path4669" />
      <path
         points="176.50729,171.72394 200.09709,168.39318 75.786999,155.88097 58.672744,156.47697 "
         d="m 58.672744,156.47697 117.834546,15.24697 23.5898,-3.33076 -124.310091,-12.51221 z"
         style="fill:#ffcc00;fill-rule:evenodd;stroke:#ffe580;stroke-width:0.74816054;stroke-linejoin:round;stroke-opacity:1"
         id="path4677" />
      <path
         points="200.09709,111.17393 200.09709,168.39318 75.786999,155.88097 75.786999,130.68747 "
         d="M 75.786999,130.68747 200.09709,111.17393 v 57.21925 L 75.786999,155.88097 Z"
         style="fill:#ffcc00;fill-rule:evenodd;stroke:#ffe580;stroke-width:0.74816054;stroke-linejoin:round;stroke-opacity:1"
         id="path4679" />
      <path
         points="176.50729,105.97941 200.09709,111.17393 75.786999,130.68747 58.672744,129.75796 "
         d="m 58.672744,129.75796 117.834546,-23.77855 23.5898,5.19452 -124.310091,19.51354 z"
         style="fill:#ffcc00;fill-rule:evenodd;stroke:#ffe580;stroke-width:0.74816054;stroke-linejoin:round;stroke-opacity:1"
         id="path4671" />
      <path
         points="176.50729,171.72394 200.09709,168.39318 200.09709,111.17393 176.50729,105.97941 "
         d="m 176.50729,105.97941 v 65.74453 l 23.5898,-3.33076 v -57.21925 z"
         style="fill:#ffcc00;fill-rule:evenodd;stroke:#ffe580;stroke-width:0.74816054;stroke-linejoin:round;stroke-opacity:1"
         id="path4675" />
      <path
         points="176.50729,105.97941 176.50729,171.72394 58.672744,156.47697 58.672744,129.75796 "
         d="M 58.672744,129.75796 176.50729,105.97941 v 65.74453 L 58.672744,156.47697 Z"
         style="fill:#ffcc00;fill-rule:evenodd;stroke:#ffe580;stroke-width:0.74816054;stroke-linejoin:round;stroke-opacity:1"
         id="path4673" />
    </g>
    <g
       style="fill:#f44336;fill-opacity:1;stroke:#ffe580;stroke-opacity:1"
       id="g4751">
      <path
         points="22.149025,174.92344 58.672737,129.75797 41.128303,111.56654 3.7522297,155.84821 "
         d="M 3.7522297,155.84821 22.149025,174.92344 58.672737,129.75797 41.128303,111.56654 Z"
         style="fill:#f44336;fill-opacity:1;fill-rule:evenodd;stroke:#ffe580;stroke-width:0.73504883;stroke-linejoin:round;stroke-opacity:1"
         id="path4753" />
      <path
         points="57.024037,189.04018 97.826779,135.48315 58.672737,129.75797 22.149025,174.92344 "
         d="m 22.149025,174.92344 34.875012,14.11674 40.802742,-53.55703 -39.154042,-5.72518 z"
         style="fill:#f44336;fill-opacity:1;fill-rule:evenodd;stroke:#ffe580;stroke-width:0.73504883;stroke-linejoin:round;stroke-opacity:1"
         id="path4761" />
      <path
         points="77.319633,114.21975 97.826779,135.48315 58.672737,129.75797 41.128303,111.56654 "
         d="m 41.128303,111.56654 36.19133,2.65321 20.507146,21.2634 -39.154042,-5.72518 z"
         style="fill:#f44336;fill-opacity:1;fill-rule:evenodd;stroke:#ffe580;stroke-width:0.73504883;stroke-linejoin:round;stroke-opacity:1"
         id="path4763" />
      <path
         points="35.342715,166.5593 77.319633,114.21975 41.128303,111.56654 3.7522297,155.84821 "
         d="M 3.7522297,155.84821 35.342715,166.5593 77.319633,114.21975 41.128303,111.56654 Z"
         style="fill:#f44336;fill-opacity:1;fill-rule:evenodd;stroke:#ffe580;stroke-width:0.73504883;stroke-linejoin:round;stroke-opacity:1"
         id="path4755" />
      <path
         points="57.024037,189.04018 97.826779,135.48315 77.319633,114.21975 35.342715,166.5593 "
         d="m 35.342715,166.5593 21.681322,22.48088 40.802742,-53.55703 -20.507146,-21.2634 z"
         style="fill:#f44336;fill-opacity:1;fill-rule:evenodd;stroke:#ffe580;stroke-width:0.73504883;stroke-linejoin:round;stroke-opacity:1"
         id="path4759" />
      <path
         points="35.342715,166.5593 57.024037,189.04018 22.149025,174.92344 3.7522297,155.84821 "
         d="M 3.7522297,155.84821 35.342715,166.5593 57.024037,189.04018 22.149025,174.92344 Z"
         style="fill:#f44336;fill-opacity:1;fill-rule:evenodd;stroke:#ffe580;stroke-width:0.73504883;stroke-linejoin:round;stroke-opacity:1"
         id="path4757" />
    </g>
    <text
       id="text4877"
       y="209.30952"
       x="22.678572"
       style="font-style:normal;font-weight:normal;font-size:10.58333302px;line-height:1.25;font-family:sans-serif;letter-spacing:0px;word-spacing:0px;fill:#000000;fill-opacity:1;stroke:none;stroke-width:0.26458332"
       xml:space="preserve"><tspan
         style="stroke-width:0.26458332"
         y="218.84251"
         x="22.678572"
         id="tspan4875" /></text>
  </g>
</svg>
