<?xml version="1.0" encoding="UTF-8" standalone="no"?>
<svg
   xmlns:dc="http://purl.org/dc/elements/1.1/"
   xmlns:cc="http://creativecommons.org/ns#"
   xmlns:rdf="http://www.w3.org/1999/02/22-rdf-syntax-ns#"
   xmlns:svg="http://www.w3.org/2000/svg"
   xmlns="http://www.w3.org/2000/svg"
   xmlns:sodipodi="http://sodipodi.sourceforge.net/DTD/sodipodi-0.dtd"
   xmlns:inkscape="http://www.inkscape.org/namespaces/inkscape"
   enable-background="new 0 0 24 24"
   height="24px"
   viewBox="0 0 24 24"
   width="24px"
   fill="#FFFFFF"
   version="1.1"
   id="svg18"
   sodipodi:docname="inventory_white_24dp.svg"
   inkscape:version="0.92.3 (2405546, 2018-03-11)">
  <metadata
     id="metadata24">
    <rdf:RDF>
      <cc:Work
         rdf:about="">
        <dc:format>image/svg+xml</dc:format>
        <dc:type
           rdf:resource="http://purl.org/dc/dcmitype/StillImage" />
      </cc:Work>
    </rdf:RDF>
  </metadata>
  <defs
     id="defs22" />
  <sodipodi:namedview
     pagecolor="#ffffff"
     bordercolor="#666666"
     borderopacity="1"
     objecttolerance="10"
     gridtolerance="10"
     guidetolerance="10"
     inkscape:pageopacity="0"
     inkscape:pageshadow="2"
     inkscape:window-width="724"
     inkscape:window-height="480"
     id="namedview20"
     showgrid="false"
     inkscape:zoom="9.8333333"
     inkscape:cx="12"
     inkscape:cy="12"
     inkscape:window-x="0"
     inkscape:window-y="30"
     inkscape:window-maximized="0"
     inkscape:current-layer="svg18" />
  <g
     id="g4">
    <rect
       fill="none"
       height="24"
       width="24"
       id="rect2" />
  </g>
  <g
     id="g16"
     style="fill:#212121;fill-opacity:1">
    <g
       id="g14"
       style="fill:#212121;fill-opacity:1">
      <path
         d="M21,11.5l1.5,1.5l-6.99,7L11,15.5l1.5-1.5l3.01,3L21,11.5z"
         id="path6"
         style="fill:#212121;fill-opacity:1" />
      <g
         id="g12"
         style="fill:#212121;fill-opacity:1">
        <polygon
           enable-background="new"
           opacity=".3"
           points="17,5 17,8 7,8 7,5 5,5 5,19 11.68,19 8.17,15.5 12.5,11.17 15.51,14.17 19,10.67 19,5"
           id="polygon8"
           style="fill:#212121;fill-opacity:1" />
        <path
           d="M5,19V5h2v3h10V5h2v5.67l2-2l0,0V5c0-1.1-0.9-2-2-2h-4.18C14.4,1.84,13.3,1,12,1S9.6,1.84,9.18,3H5C3.9,3,3,3.9,3,5v14 c0,1.1,0.9,2,2,2h8.68l-2-2H5z M12,3c0.55,0,1,0.45,1,1s-0.45,1-1,1s-1-0.45-1-1S11.45,3,12,3z"
           id="path10"
           style="fill:#212121;fill-opacity:1" />
      </g>
    </g>
  </g>
</svg>
