<?xml version="1.0" encoding="UTF-8" standalone="no"?>
<svg
   xmlns:dc="http://purl.org/dc/elements/1.1/"
   xmlns:cc="http://creativecommons.org/ns#"
   xmlns:rdf="http://www.w3.org/1999/02/22-rdf-syntax-ns#"
   xmlns:svg="http://www.w3.org/2000/svg"
   xmlns="http://www.w3.org/2000/svg"
   xmlns:sodipodi="http://sodipodi.sourceforge.net/DTD/sodipodi-0.dtd"
   xmlns:inkscape="http://www.inkscape.org/namespaces/inkscape"
   data-name="Layer 1"
   viewBox="0 0 100 125"
   x="0px"
   y="0px"
   version="1.1"
   id="svg12"
   sodipodi:docname="noun_profile_1776214.svg"
   inkscape:version="0.92.3 (2405546, 2018-03-11)">
  <metadata
     id="metadata18">
    <rdf:RDF>
      <cc:Work
         rdf:about="">
        <dc:format>image/svg+xml</dc:format>
        <dc:type
           rdf:resource="http://purl.org/dc/dcmitype/StillImage" />
      </cc:Work>
    </rdf:RDF>
  </metadata>
  <defs
     id="defs16" />
  <sodipodi:namedview
     pagecolor="#ffffff"
     bordercolor="#666666"
     borderopacity="1"
     objecttolerance="10"
     gridtolerance="10"
     guidetolerance="10"
     inkscape:pageopacity="0"
     inkscape:pageshadow="2"
     inkscape:window-width="1920"
     inkscape:window-height="1017"
     id="namedview14"
     showgrid="false"
     inkscape:zoom="1.888"
     inkscape:cx="50"
     inkscape:cy="62.5"
     inkscape:window-x="0"
     inkscape:window-y="30"
     inkscape:window-maximized="1"
     inkscape:current-layer="svg12" />
  <title
     id="title2">3</title>
  <ellipse
     style="fill:#ffd180;fill-opacity:1"
     id="path828"
     cx="51.669495"
     cy="63.851692"
     rx="82.627121"
     ry="83.156776" />
  <path
     inkscape:connector-curvature="0"
     d="m 60.321665,83.72652 a 5.2195426,5.0056947 0 0 1 -0.639846,1.710007 c -0.460932,0.719697 -2.458292,3.067455 -8.8069,3.067455 -6.348608,0 -8.345909,-2.347792 -8.806961,-3.067455 a 5.2195426,5.0056947 0 0 1 -0.639833,-1.710007 34.202525,32.801227 0 0 0 -16.943747,9.174286 5.8672862,5.6268998 0 0 0 1.182527,8.601274 c 5.938632,3.51811 14.069918,5.68604 25.208014,5.68604 11.138095,0 19.26937,-2.16793 25.207958,-5.68604 a 5.8672981,5.6269113 0 0 0 1.18253,-8.601274 34.202311,32.801021 0 0 0 -16.943742,-9.174286 z"
     id="path4"
     style="stroke-width:1.16837764" />
  <path
     inkscape:connector-curvature="0"
     d="m 79.028937,36.34045 a 1.4338003,1.3750566 0 0 1 -1.182181,-1.27423 6.3153689,6.0566243 0 0 0 -2.725449,-4.654874 1.4328816,1.3741755 0 0 1 -0.616751,-1.08006 9.0198046,8.6502577 0 0 0 -9.041268,-8.370181 9.1645484,8.7890711 0 0 0 -1.727082,0.164649 1.4214281,1.3631913 0 0 1 -1.157914,-0.269343 9.3435571,8.9607458 0 0 0 -10.072274,-0.935092 1.4309369,1.3723105 0 0 1 -1.422908,-0.06353 6.1921721,5.938475 0 0 0 -9.462077,4.18509 1.433335,1.3746103 0 0 1 -2.284116,0.903775 8.8626649,8.499556 0 0 0 -5.389305,-1.743979 8.9620122,8.594833 0 0 0 -8.951692,8.584879 c 0,0.05101 0.0048,0.101112 0.0084,0.151227 l 0.01312,0.207603 a 1.4334662,1.3747362 0 0 1 -0.877076,1.320753 6.3497294,6.0895771 0 0 0 -3.897354,5.624852 l 0.01074,0.188792 a 1.4330128,1.3743014 0 0 1 -0.700728,1.214274 6.1977318,5.9438069 0 0 0 1.162579,10.745938 1.4327623,1.3740611 0 0 1 0.958253,1.485403 10.023335,9.6126725 0 0 0 9.474318,11.00186 20.263499,19.433291 0 0 1 -0.575515,-4.527571 81.484826,78.146342 0 0 1 0.363888,-8.694778 2.866646,2.7491978 0 0 1 1.573354,-2.158097 3.9844249,3.8211806 0 0 0 2.228829,-3.409831 2.8663239,2.7488888 0 0 1 4.487615,-2.248557 7.4351283,7.1305065 0 0 0 4.223481,1.2551 7.5231413,7.2149136 0 0 0 7.44768,-6.545412 2.8663597,2.7489232 0 0 1 4.440406,-2.052591 4.1357902,3.9663443 0 0 0 4.59702,-0.01768 2.866479,2.7490376 0 0 1 3.333735,0.08389 c 7.907609,5.730335 7.907609,16.597191 7.907609,23.787997 a 20.345976,19.512389 0 0 1 -0.187885,2.509752 c 0.0272,0.0023 0.05297,0.01053 0.08029,0.01259 a 6.202182,5.9480748 0 0 0 5.76626,-9.00371 1.4324044,1.3737179 0 0 1 1.172855,-2.083152 7.5124991,7.2047074 0 0 0 1.020758,-14.295704 z"
     id="path6"
     style="stroke-width:1.16837764" />
</svg>
