<svg xmlns="http://www.w3.org/2000/svg" viewBox="0 0 64 80" x="0px" y="0px"><title>07-line-charts-mathematics-analytics-statistics-finance</title><g data-name="Layer 7"><polygon points="64 64 0 64 0 0 2 0 2 62 64 62 64 64"/><path d="M53,42a1,1,0,0,1-.707-.293L33,22.414,18.707,36.707a1,1,0,0,1-1.414,0L9,28.414,5.707,31.707,4.293,30.293l4-4a1,1,0,0,1,1.414,0L18,34.586,32.293,20.293a1,1,0,0,1,1.414,0L53,39.586l4.293-4.293A1,1,0,0,1,58,35h3v2H58.414l-4.707,4.707A1,1,0,0,1,53,42Z"/></g><text x="0" y="79" fill="#000000" font-size="5px" font-weight="bold" font-family="'Helvetica Neue', Helvetica, Arial-Unicode, Arial, Sans-serif">Created by KonKapp</text><text x="0" y="84" fill="#000000" font-size="5px" font-weight="bold" font-family="'Helvetica Neue', Helvetica, Arial-Unicode, Arial, Sans-serif">from the Noun Project</text></svg>